<?xml version="1.0" encoding="utf-8"?>
<!-- Generator: Adobe Illustrator 26.5.0, SVG Export Plug-In . SVG Version: 6.00 Build 0)  -->
<svg version="1.1" xmlns="http://www.w3.org/2000/svg" xmlns:xlink="http://www.w3.org/1999/xlink" x="0px" y="0px"
	 viewBox="0 0 1280 1280" style="enable-background:new 0 0 1280 1280;" xml:space="preserve">
<style type="text/css">
	.st0{font-family:'TimesNewRomanPSMT';}
	.st1{font-size:312.1751px;}
	.st2{fill:#FFCC00;}
	.st3{fill:none;}
</style>
<g id="Layer_3">
	<g>
		<path class="st3" d="M739.18,778.51l233.84-233.84c-26.15-16.85-59.03-33.75-99.75-47.88L691.25,678.81
			C705.41,719.53,722.32,752.38,739.18,778.51z"/>
		<path class="st3" d="M556.93,154.28L348.79,362.42c21.69,19.61,50.55,38.27,83.86,52.29l176.44-176.44
			C595.14,204.93,576.52,176.03,556.93,154.28z"/>
		<path class="st3" d="M348.7,362.33c0.02,0.02,0.03,0.03,0.05,0.05L348.7,362.33L348.7,362.33z"/>
		<path class="st3" d="M347.54,361.26l-12.84-12.84C338.63,352.72,342.91,357.01,347.54,361.26z"/>
		<path d="M1019.93,507.63c-14.47-12.04-30.48-22.09-47.62-29.88c-19.14-8.7-47.9-20.82-82.05-32.17
			c-75.1-24.99-176.3-46.31-258.43-19.37c-43.59,14.3-87.5,15.76-128.35,9.03c-0.05-0.01-0.1-0.02-0.15-0.02
			c-24.97-4.13-48.79-11.3-70.68-20.51l0.01-0.01c-33.31-14.01-62.17-32.68-83.86-52.29c-0.01-0.01-0.03-0.02-0.04-0.04
			c-0.02-0.02-0.03-0.03-0.05-0.05l-0.04,0.04c-0.01-0.01-0.03-0.02-0.04-0.04l-1.08-1.08c-4.63-4.25-8.91-8.54-12.84-12.84
			l-1.19-1.19c-11.4-12.68-19.58-25.35-23.84-37.06l0.09-0.09c-0.57-1.58-1.1-3.16-1.53-4.7c-7.75-28.03-17.02-38.46-25.14-41.14
			c-7.18-2.44-13.47,1.19-17.07,4.11c-2.39,1.94-5.04,3.54-7.76,4.98c-33.75,17.9,17.97,86.14,47.64,120.94
			c12.43,14.58,26.91,27.3,43.13,37.49c27.37,17.21,54.65,29.65,81.16,38.42c103.98,34.44,196.05,12.33,234.78-0.5
			c14.84-4.92,30.5-6.85,46.08-5.59c32.95,2.67,63.07,7.16,90.59,12.97l0.01-0.01c26.13,5.52,49.92,12.22,71.49,19.7
			c0.04,0.02,0.09,0.03,0.13,0.05c40.72,14.14,73.6,31.03,99.75,47.88c21.44,13.82,38.38,27.6,51.39,39.8
			c0.03,0.03,0.06,0.06,0.09,0.09c11.75,11.03,20.31,20.77,26.12,28.07c3.39,4.26,7.83,7.31,12.68,9.01
			c8,2.85,17.13,1.99,24.48-3.21C1118.95,596.36,1055.7,537.38,1019.93,507.63z"/>
		<path d="M778.97,829.92c-12.2-12.98-26.01-29.9-39.85-51.34l0.06-0.06c-16.86-26.13-33.77-58.99-47.93-99.7
			c-0.02-0.04-0.03-0.09-0.04-0.13l-0.09,0.09c-7.5-21.56-14.21-45.33-19.74-71.45l0.1-0.1c-5.2-24.6-9.36-51.28-12.11-80.21
			c-0.95-10.01-7.74-17.85-16.46-20.84c-4.55-1.59-9.64-1.86-14.7-0.41c-0.78,0.22-1.56,0.44-2.35,0.67
			c-10.74,3.03-18.07,12.95-17.83,24.1c2.11,100,44.1,203.59,64.79,248.8c7.23,15.8,16.49,30.57,27.55,43.96
			c21,25.42,58.16,66.56,85.74,76.01c13.49,4.66,24.7,1.78,30.65-14.15c3.73-9.99,0.49-21.24-7.92-27.79
			c-7.42-5.77-17.82-14.71-29.73-27.39c-0.03-0.03-0.06-0.06-0.08-0.09L778.97,829.92z"/>
		<path class="st2" d="M333.51,347.23l1.19,1.19l12.84,12.84l1.08,1.08c0.01,0.01,0.03,0.02,0.04,0.04l0.04-0.04l0,0l0.05,0.05
			c0.01,0.01,0.03,0.02,0.04,0.04l208.14-208.14c-0.03-0.03-0.05-0.06-0.08-0.09c-17.46-19.37-35.69-33.07-52.05-39.14
			L309.76,310.08l-0.09,0.09C313.94,321.88,322.12,334.55,333.51,347.23z"/>
		<path class="st2" d="M609.09,238.26L432.65,414.71l-0.01,0.01c21.9,9.2,45.72,16.38,70.68,20.51c0.05,0.01,0.1,0.02,0.15,0.02
			l126.07-126.07c-0.01-0.05-0.02-0.1-0.02-0.15C625.44,284.03,618.28,260.19,609.09,238.26z"/>
		<path class="st2" d="M691.12,678.77l0.09-0.09c0.02,0.04,0.03,0.09,0.04,0.13l182.02-182.02c-0.04-0.02-0.09-0.03-0.13-0.05
			c-21.57-7.48-45.35-14.19-71.49-19.7l-0.01,0.01L671.48,607.22l-0.1,0.1C676.91,633.44,683.62,657.21,691.12,678.77z"/>
		<path class="st2" d="M973.02,544.68L739.18,778.51l-0.06,0.06c13.84,21.44,27.64,38.36,39.85,51.34l0.05-0.05
			c0.03,0.03,0.06,0.06,0.08,0.09l245.4-245.4c-0.03-0.03-0.06-0.06-0.09-0.09C1011.4,572.27,994.46,558.49,973.02,544.68z"/>
		<path d="M556.85,154.18c0.03,0.03,0.05,0.06,0.08,0.09c19.59,21.75,38.2,50.65,52.16,83.98c9.18,21.93,16.35,45.77,20.44,70.76
			c0.01,0.05,0.02,0.1,0.02,0.15c2.64,16.2,4,32.87,3.77,49.81c-0.15,11.02,6.96,20.14,16.59,23.42c3.76,1.31,7.91,1.72,12.17,1.01
			c0.17-0.03,0.34-0.06,0.51-0.08c11.44-1.91,19.91-11.73,20.19-23.33c1.53-62.14-11.64-139.84-64.35-217.46
			c-5.74-8.46-12.51-16.17-20.15-22.96c-19.95-17.72-62.96-53.6-95.1-64.11c-15.74-5.18-28.88-4.29-35.46,7.75
			c-1.58,2.89-3.29,5.71-5.34,8.29c-5.82,7.34-13.8,25.04,28.2,39.09c2.81,0.94,5.85,1.87,9.12,2.78c0.85,0.23,1.7,0.49,2.56,0.77
			c0.84,0.27,1.68,0.57,2.53,0.88C521.16,121.11,539.39,134.81,556.85,154.18z"/>
		<path d="M712.31,174.17c14.39-1.93,47.53,22.48,42.9,34.25c-9.46,24.04,10.15,31.57,21.99,48.15
			c-27.25,27.01-54.17,53.71-80.98,80.26c0.26,7.77,0.3,15.59,0.11,23.46c-0.44,18.07-13.68,33.34-31.47,36.31l-0.46,0.08
			c-2.13,0.36-4.27,0.53-6.4,0.53c-6.37,0-12.6-1.59-18.16-4.61c-1.01,0.99-2.01,1.99-3.02,2.98c-2.83,2.79-6.36,4.97-9.8,7.03
			c-11.28,6.77-23.45,12.46-34.49,19.49c11.95-2.03,23.71-4.93,35.25-8.72c32.46-10.65,67.61-14.11,102.97-12.91
			c30.78-31.98,67.16-61.01,100.12-93.96c13.09,19.95,27.98,30.79,51.7,20.7c5.62-2.39,17.18,4.86,23.91,10.28
			c15.87,12.78,33.14,25.16,45.05,41.25c24.43,33,45.71,68.34,68.03,102.3c-1.69,1.54,0.12,0.68,0.51-0.62
			c1.17-3.87,2.05-7.88,2.57-11.89c10.1-77.45-14.46-144.04-66.26-200.5c-35.4-38.58-73.17-75.02-110.86-111.39
			c-5.69-5.49-16.7-7.11-25.37-7.45c-12.33-0.48-45.26-24.53-41.41-35.04c11.05-30.19-16.65-37.23-28.62-53.28
			c-8.54-11.45-19.26-10.16-29.24,0.05c-14.87,15.23-31.18,29.21-44.71,45.52c-7.22,8.7-16.4,28.12-13.56,30.78
			C677.55,151.18,684.34,177.92,712.31,174.17z"/>
		<path d="M616.15,495.79c-30.18,5.39-67.73,8.56-109.45,4.38c-2.95,2.79-5.89,5.59-8.84,8.38l78.18,78.18
			c6.97-7.08,13.92-14.19,20.82-21.35c-1.17-11.49-1.92-23.04-2.16-34.57C594.38,515.75,602.95,502.16,616.15,495.79z"/>
		<path class="st2" d="M206.07,785.39c-29.63,28.13-29.59,38.57-0.17,67.98c11.58,11.58,22.87,23.46,34.77,34.69
			c18.36,17.32,33.07,17.5,50.76-1c68.47-71.59,138.71-141.66,204.06-216.01c25.69-29.23,53.27-56.61,80.55-84.33l-78.18-78.18
			C400.59,600.82,303.31,693.08,206.07,785.39z"/>
	</g>
	<path class="st2" d="M1421,519"/>
</g>
</svg>
